<svg xmlns="http://www.w3.org/2000/svg" viewBox="0 0 31.59 28.08"><defs><style>.cls-1{fill:#fff;}.cls-1,.cls-2{stroke:#fb7b39;stroke-linecap:round;stroke-linejoin:round;stroke-width:1.2px;}.cls-2{fill:none;}.cls-3{fill:#ac6b47;}</style></defs><title>dog2</title><g id="Layer_2" data-name="Layer 2"><g id="Layer_7" data-name="Layer 7"><g id="dog2"><path id="_Path_" data-name="&lt;Path&gt;" class="cls-1" d="M31,12.51H27.18A1.14,1.14,0,0,1,26,11.37V2.51A1.9,1.9,0,0,0,24.13.6h-13a.48.48,0,0,0-.48.48l0,5.42a1.91,1.91,0,0,1-1.9,1.92l-7.06,0A1.14,1.14,0,0,0,.6,9.59v5.77a4.29,4.29,0,0,0,4.29,4.29H16.63a2.33,2.33,0,0,1,1.14.29,1.88,1.88,0,0,1,.94,1.66v5.88"/><path id="_Path_2" data-name="&lt;Path&gt;" class="cls-2" d="M.64,15.35a4.15,4.15,0,0,0,4.12,4.29A4.28,4.28,0,0,0,9,15.35"/><circle id="_Path_3" data-name="&lt;Path&gt;" class="cls-3" cx="15.96" cy="6.68" r="1.36"/><path id="_Path_4" data-name="&lt;Path&gt;" class="cls-2" d="M26,2.54V13a2.87,2.87,0,0,1-2.86,2.86h0A2.87,2.87,0,0,1,20.31,13V5.78"/></g></g></g></svg>