<?xml version="1.0" encoding="UTF-8"?>
<svg width="167px" height="155px" viewBox="0 0 167 155" version="1.1" xmlns="http://www.w3.org/2000/svg" xmlns:xlink="http://www.w3.org/1999/xlink">
    <!-- Generator: Sketch 49.3 (51167) - http://www.bohemiancoding.com/sketch -->
    <title>icon 2</title>
    <desc>Created with Sketch.</desc>
    <defs></defs>
    <g id="Page-4" stroke="none" stroke-width="1" fill="none" fill-rule="evenodd">
        <g id="icon-2" transform="translate(3.000000, -2.000000)">
            <path d="M0.790123457,69.1624691 C0.790123457,113.120988 36.429037,148.758321 80.3871605,148.758321 C124.345679,148.758321 159.983012,113.120988 159.983012,69.1624691" id="Fill-5" stroke="#FF992B" stroke-width="6.5" stroke-linecap="round" stroke-linejoin="round"></path>
            <path d="M104.00316,156.383506 L56.7699753,156.383506 C55.3208889,156.383506 54.1467654,155.208988 54.1467654,153.758321 C54.1467654,152.309235 55.3208889,151.134716 56.7699753,151.134716 L104.00316,151.134716 C105.452247,151.134716 106.627951,152.309235 106.627951,153.758321 C106.627951,155.208988 105.452247,156.383506 104.00316,156.383506 L104.00316,156.383506 Z" id="Fill-6" fill="#FF992B"></path>
            <path d="M155.734617,47.1257284 L7.03851852,47.1257284 C4.14192593,47.1257284 1.79012346,48.5820513 1.79012346,50.3757284 C1.79012346,52.1694055 4.14192593,53.6257284 7.03851852,53.6257284 L155.734617,53.6257284 C158.63279,53.6257284 160.983012,52.1694055 160.983012,50.3757284 C160.983012,48.5820513 158.63279,47.1257284 155.734617,47.1257284 L155.734617,47.1257284 Z" id="Fill-1" fill="#FF992B"></path>
            <g id="Group-2" transform="translate(11.000000, 25.000000)" fill="#FF992B">
                <path d="M6.33422477,18.2011322 C4.79751236,28.0492918 0.950617283,29.9920001 0.950617284,36.9363723 C0.950617285,43.8807444 4.55548399,48.2699075 6.88283751,55.5879625 C9.21019102,62.9060174 6.22501821,64.9141031 6.22501821,64.9141031 C4.79868917,67.2604109 5.88577398,69.1624691 8.64867098,69.1624691 L8.80227871,69.1624691 C9.90257621,69.1624691 11.166929,68.349666 11.5901657,67.328563 C11.5901657,67.328563 14.6953229,61.3357079 13.4863472,54.6836415 C12.2773716,48.031575 8.10273975,46.0617822 8.10273975,36.9363723 C8.10273975,27.8109623 12.0476312,29.9665862 13.4863472,18.2011322 C14.9250633,6.43567826 11.6800304,1.8317829 11.6800304,1.8317829 C11.1909895,0.854481526 9.90318336,0.0622222222 8.80227871,0.0622222222 L10.0957457,0.0622222222 C6.5316729,0.0622222222 4.73546209,2.72772757 5.7437762,6.15345853 C5.7437762,6.15345853 7.87093718,8.35297261 6.33422477,18.2011322 Z" id="Fill-2"></path>
                <path d="M43.8665379,18.13891 C42.3298255,27.9870696 38.4829304,29.9297779 38.4829304,36.87415 C38.4829304,43.8185221 42.0877971,48.2076853 44.4151506,55.5257403 C46.7425041,62.8437952 43.7573313,64.8518808 43.7573313,64.8518808 C42.3310023,67.1981886 43.4180871,69.1002469 46.1809841,69.1002469 L46.3345918,69.1002469 C47.4348893,69.1002469 48.6992421,68.2874438 49.1224788,67.2663408 C49.1224788,67.2663408 52.227636,61.2734857 51.0186604,54.6214193 C49.8096847,47.9693528 45.6350529,45.9995599 45.6350529,36.87415 C45.6350529,27.7487401 49.5799443,29.9043639 51.0186604,18.13891 C52.4573764,6.37345604 49.2123435,1.76956068 49.2123435,1.76956068 C48.7233026,0.792259303 47.4354965,0 46.3345918,0 L47.6280588,0 C44.063986,0 42.2677752,2.66550535 43.2760893,6.0912363 C43.2760893,6.0912363 45.4032503,8.29075039 43.8665379,18.13891 Z" id="Fill-2-Copy-5"></path>
                <path d="M24.8033606,18.2011322 C23.2666482,28.0492918 19.4197531,29.9920001 19.4197531,36.9363723 C19.4197531,43.8807444 23.0246198,48.2699075 25.3519733,55.5879625 C27.6793268,62.9060174 24.694154,64.9141031 24.694154,64.9141031 C23.267825,67.2604109 24.3549098,69.1624691 27.1178068,69.1624691 L27.2714145,69.1624691 C28.371712,69.1624691 29.6360648,68.349666 30.0593015,67.328563 C30.0593015,67.328563 33.1644587,61.3357079 31.955483,54.6836415 C30.7465074,48.031575 26.5718756,46.0617822 26.5718756,36.9363723 C26.5718756,27.8109623 30.516767,29.9665862 31.955483,18.2011322 C33.3941991,6.43567826 30.1491662,1.8317829 30.1491662,1.8317829 C29.6601253,0.854481526 28.3723192,0.0622222222 27.2714145,0.0622222222 L28.5648815,0.0622222222 C25.0008087,0.0622222222 23.2045979,2.72772757 24.212912,6.15345853 C24.212912,6.15345853 26.340073,8.35297261 24.8033606,18.2011322 Z" id="Fill-2-Copy"></path>
                <path d="M61.8665379,18.13891 C60.3298255,27.9870696 56.4829304,29.9297779 56.4829304,36.87415 C56.4829304,43.8185221 60.0877971,48.2076853 62.4151506,55.5257403 C64.7425041,62.8437952 61.7573313,64.8518808 61.7573313,64.8518808 C60.3310023,67.1981886 61.4180871,69.1002469 64.1809841,69.1002469 L64.3345918,69.1002469 C65.4348893,69.1002469 66.6992421,68.2874438 67.1224788,67.2663408 C67.1224788,67.2663408 70.227636,61.2734857 69.0186604,54.6214193 C67.8096847,47.9693528 63.6350529,45.9995599 63.6350529,36.87415 C63.6350529,27.7487401 67.5799443,29.9043639 69.0186604,18.13891 C70.4573764,6.37345604 67.2123435,1.76956068 67.2123435,1.76956068 C66.7233026,0.792259303 65.4354965,0 64.3345918,0 L65.6280588,0 C62.063986,0 60.2677752,2.66550535 61.2760893,6.0912363 C61.2760893,6.0912363 63.4032503,8.29075039 61.8665379,18.13891 Z" id="Fill-2-Copy-6"></path>
                <path d="M80.8665379,18.13891 C79.3298255,27.9870696 75.4829304,29.9297779 75.4829304,36.87415 C75.4829304,43.8185221 79.0877971,48.2076853 81.4151506,55.5257403 C83.7425041,62.8437952 80.7573313,64.8518808 80.7573313,64.8518808 C79.3310023,67.1981886 80.4180871,69.1002469 83.1809841,69.1002469 L83.3345918,69.1002469 C84.4348893,69.1002469 85.6992421,68.2874438 86.1224788,67.2663408 C86.1224788,67.2663408 89.227636,61.2734857 88.0186604,54.6214193 C86.8096847,47.9693528 82.6350529,45.9995599 82.6350529,36.87415 C82.6350529,27.7487401 86.5799443,29.9043639 88.0186604,18.13891 C89.4573764,6.37345604 86.2123435,1.76956068 86.2123435,1.76956068 C85.7233026,0.792259303 84.4354965,0 83.3345918,0 L84.6280588,0 C81.063986,0 79.2677752,2.66550535 80.2760893,6.0912363 C80.2760893,6.0912363 82.4032503,8.29075039 80.8665379,18.13891 Z" id="Fill-2-Copy-8"></path>
                <path d="M98.8665379,18.13891 C97.3298255,27.9870696 93.4829304,29.9297779 93.4829304,36.87415 C93.4829304,43.8185221 97.0877971,48.2076853 99.4151506,55.5257403 C101.742504,62.8437952 98.7573313,64.8518808 98.7573313,64.8518808 C97.3310023,67.1981886 98.4180871,69.1002469 101.180984,69.1002469 L101.334592,69.1002469 C102.434889,69.1002469 103.699242,68.2874438 104.122479,67.2663408 C104.122479,67.2663408 107.227636,61.2734857 106.01866,54.6214193 C104.809685,47.9693528 100.635053,45.9995599 100.635053,36.87415 C100.635053,27.7487401 104.579944,29.9043639 106.01866,18.13891 C107.457376,6.37345604 104.212344,1.76956068 104.212344,1.76956068 C103.723303,0.792259303 102.435496,0 101.334592,0 L102.628059,0 C99.063986,0 97.2677752,2.66550535 98.2760893,6.0912363 C98.2760893,6.0912363 100.40325,8.29075039 98.8665379,18.13891 Z" id="Fill-2-Copy-7"></path>
            </g>
            <path d="M7.06320988,17.7012346 C4.16661728,17.7012346 1.81481481,19.1575575 1.81481481,20.9512346 C1.81481481,22.7449116 4.16661728,24.2012346 7.06320988,24.2012346 L155.759309,24.2012346 C158.657481,24.2012346 161.007704,22.7449116 161.007704,20.9512346 C161.007704,19.1575575 158.657481,17.7012346 155.759309,17.7012346 L7.06320988,17.7012346 Z" id="Fill-9" fill="#FF992B" transform="translate(81.411259, 20.951235) rotate(-12.000000) translate(-81.411259, -20.951235) "></path>
        </g>
    </g>
</svg>