<?xml version="1.0" encoding="UTF-8"?>
<svg width="50px" height="50px" viewBox="0 0 50 50" version="1.1" xmlns="http://www.w3.org/2000/svg" xmlns:xlink="http://www.w3.org/1999/xlink">
    <!-- Generator: Sketch 49.3 (51167) - http://www.bohemiancoding.com/sketch -->
    <title>send_icon@2x</title>
    <desc>Created with Sketch.</desc>
    <defs></defs>
    <g id="design" stroke="none" stroke-width="1" fill="none" fill-rule="evenodd">
        <g id="about" transform="translate(-1175.000000, -2634.000000)">
            <g id="about_footer" transform="translate(0.000000, 2460.000000)">
                <g id="contact" transform="translate(61.000000, 96.000000)">
                    <g id="send_icon" transform="translate(1114.000000, 78.000000)">
                        <circle id="Oval-4" fill="#595BF0" cx="25" cy="25" r="25"></circle>
                        <path d="M33.9876647,17.5200167 L28.6106647,31.5810167 C28.4746647,31.9360167 28.1726647,32.2110167 27.7936647,32.3210167 C27.4136647,32.4310167 27.0006647,32.3650167 26.6806647,32.1430167 L21.6546647,28.6480167 L33.2016647,17.7800167 L20.1426647,27.5960167 L16.4666647,25.0390167 C16.1306647,24.8060167 15.9556647,24.4160167 16.0096647,24.0220167 C16.0646647,23.6290167 16.3396647,23.2960167 16.7276647,23.1530167 L33.4616647,17.0260167 C33.6106647,16.9710167 33.7776647,17.0050167 33.8906647,17.1110167 C34.0036647,17.2180167 34.0416647,17.3770167 33.9876647,17.5200167 L33.9876647,17.5200167 Z M21.3586647,32.8920167 C21.1116647,33.0450167 20.8006647,33.0680167 20.5316647,32.9570167 C20.2616647,32.8450167 20.0686647,32.6130167 20.0146647,32.3360167 L19.3016647,28.6080167 L19.2706647,28.4450167 L23.6156647,31.4200167 C23.6506647,31.4670167 22.3526647,32.2800167 21.3586647,32.8920167 L21.3586647,32.8920167 Z" id="Shape" fill="#FFFFFF"></path>
                    </g>
                </g>
            </g>
        </g>
    </g>
</svg>